{
	"asset":{
		"generator":"Khronos glTF Blender I/O v3.6.27",
		"version":"2.0"
	},
	"extensionsUsed":[
		"KHR_materials_emissive_strength"
	],
	"scene":0,
	"scenes":[
		{
			"name":"Scene",
			"nodes":[
				10
			]
		}
	],
	"nodes":[
		{
			"mesh":0,
			"name":"Cube.003_WINGS_0",
			"translation":[
				0.0023107705637812614,
				6.561511993408203,
				-2.2907233238220215
			]
		},
		{
			"mesh":1,
			"name":"engine3.002",
			"scale":[
				0.8224364519119263,
				0.8224363923072815,
				0.8224363923072815
			],
			"translation":[
				0,
				-0.8901243209838867,
				0
			]
		},
		{
			"children":[
				1
			],
			"mesh":2,
			"name":"engine2.002",
			"scale":[
				0.8658764362335205,
				0.8658763766288757,
				0.8658763766288757
			],
			"translation":[
				0,
				-0.17246820032596588,
				0
			]
		},
		{
			"children":[
				2
			],
			"mesh":3,
			"name":"engine_left",
			"rotation":[
				-1,
				0,
				0,
				3.713671048899414e-06
			],
			"scale":[
				2.613985061645508,
				2.613985061645508,
				2.613985061645508
			],
			"translation":[
				15.171651840209961,
				26.083520889282227,
				-0.5176354050636292
			]
		},
		{
			"mesh":4,
			"name":"engine3",
			"scale":[
				0.8224363923072815,
				0.8224363923072815,
				0.8224363923072815
			],
			"translation":[
				0,
				-0.8901262879371643,
				0
			]
		},
		{
			"children":[
				4
			],
			"mesh":5,
			"name":"engine2",
			"scale":[
				0.8658764362335205,
				0.8658764362335205,
				0.8658764362335205
			],
			"translation":[
				0,
				-0.17246821522712708,
				0
			]
		},
		{
			"children":[
				5
			],
			"mesh":6,
			"name":"engine_mid",
			"rotation":[
				-1,
				0,
				0,
				3.713671048899414e-06
			],
			"scale":[
				4.462703704833984,
				4.462703704833984,
				4.462703704833984
			],
			"translation":[
				0.002363990293815732,
				41.369140625,
				1.3039084672927856
			]
		},
		{
			"mesh":7,
			"name":"engine3.001",
			"scale":[
				0.8224364519119263,
				0.8224363923072815,
				0.8224363923072815
			],
			"translation":[
				0,
				-0.8901243209838867,
				0
			]
		},
		{
			"children":[
				7
			],
			"mesh":8,
			"name":"engine2.001",
			"scale":[
				0.8658764362335205,
				0.8658763766288757,
				0.8658763766288757
			],
			"translation":[
				0,
				-0.17246820032596588,
				0
			]
		},
		{
			"children":[
				8
			],
			"mesh":9,
			"name":"engine_right",
			"rotation":[
				-1,
				0,
				0,
				3.713671048899414e-06
			],
			"scale":[
				2.613985061645508,
				2.613985061645508,
				2.613985061645508
			],
			"translation":[
				-14.950811386108398,
				26.083520889282227,
				-0.5176354050636292
			]
		},
		{
			"children":[
				0,
				3,
				6,
				9
			],
			"mesh":10,
			"name":"Cube.010_BASE_0",
			"rotation":[
				-0.7071093916893005,
				0,
				0,
				0.7071041464805603
			],
			"translation":[
				-0.0023639907594770193,
				1.68644380569458,
				-1.6939682960510254
			]
		}
	],
	"materials":[
		{
			"doubleSided":true,
			"emissiveFactor":[
				1,
				1,
				1
			],
			"emissiveTexture":{
				"index":0
			},
			"extensions":{
				"KHR_materials_emissive_strength":{
					"emissiveStrength":7.162331581115723
				}
			},
			"name":"WINGS",
			"normalTexture":{
				"index":1
			},
			"occlusionTexture":{
				"index":2
			},
			"pbrMetallicRoughness":{
				"baseColorTexture":{
					"index":3
				},
				"metallicRoughnessTexture":{
					"index":2
				},
				"roughnessFactor":0.735122799873352
			}
		},
		{
			"doubleSided":true,
			"emissiveFactor":[
				1,
				1,
				1
			],
			"emissiveTexture":{
				"index":4
			},
			"extensions":{
				"KHR_materials_emissive_strength":{
					"emissiveStrength":1.9991562366485596
				}
			},
			"name":"BASE",
			"normalTexture":{
				"index":5
			},
			"occlusionTexture":{
				"index":6
			},
			"pbrMetallicRoughness":{
				"baseColorTexture":{
					"index":7
				},
				"metallicRoughnessTexture":{
					"index":6
				},
				"roughnessFactor":0.8484607934951782
			}
		}
	],
	"meshes":[
		{
			"name":"Cube.003_WINGS_0",
			"primitives":[
				{
					"attributes":{
						"POSITION":0,
						"NORMAL":1,
						"TEXCOORD_0":2,
						"TEXCOORD_1":3
					},
					"indices":4,
					"material":0
				}
			]
		},
		{
			"name":"Cylinder.008",
			"primitives":[
				{
					"attributes":{
						"POSITION":5,
						"NORMAL":6,
						"TEXCOORD_0":7
					},
					"indices":8
				}
			]
		},
		{
			"name":"Cylinder.009",
			"primitives":[
				{
					"attributes":{
						"POSITION":9,
						"NORMAL":10,
						"TEXCOORD_0":11
					},
					"indices":12
				}
			]
		},
		{
			"name":"Cylinder.007",
			"primitives":[
				{
					"attributes":{
						"POSITION":13,
						"NORMAL":14,
						"TEXCOORD_0":15
					},
					"indices":16
				}
			]
		},
		{
			"name":"Cylinder.001",
			"primitives":[
				{
					"attributes":{
						"POSITION":17,
						"NORMAL":18,
						"TEXCOORD_0":19
					},
					"indices":8
				}
			]
		},
		{
			"name":"Cylinder.002",
			"primitives":[
				{
					"attributes":{
						"POSITION":20,
						"NORMAL":21,
						"TEXCOORD_0":22
					},
					"indices":12
				}
			]
		},
		{
			"name":"Cylinder",
			"primitives":[
				{
					"attributes":{
						"POSITION":23,
						"NORMAL":24,
						"TEXCOORD_0":25
					},
					"indices":16
				}
			]
		},
		{
			"name":"Cylinder.003",
			"primitives":[
				{
					"attributes":{
						"POSITION":26,
						"NORMAL":27,
						"TEXCOORD_0":28
					},
					"indices":8
				}
			]
		},
		{
			"name":"Cylinder.004",
			"primitives":[
				{
					"attributes":{
						"POSITION":29,
						"NORMAL":30,
						"TEXCOORD_0":31
					},
					"indices":12
				}
			]
		},
		{
			"name":"Cylinder.005",
			"primitives":[
				{
					"attributes":{
						"POSITION":32,
						"NORMAL":33,
						"TEXCOORD_0":34
					},
					"indices":16
				}
			]
		},
		{
			"name":"Cube.010_BASE_0",
			"primitives":[
				{
					"attributes":{
						"POSITION":35,
						"NORMAL":36,
						"TEXCOORD_0":37,
						"TEXCOORD_1":38
					},
					"indices":39,
					"material":1
				}
			]
		}
	],
	"textures":[
		{
			"sampler":0,
			"source":0
		},
		{
			"sampler":0,
			"source":1
		},
		{
			"sampler":0,
			"source":2
		},
		{
			"sampler":0,
			"source":3
		},
		{
			"sampler":0,
			"source":4
		},
		{
			"sampler":0,
			"source":5
		},
		{
			"sampler":0,
			"source":6
		},
		{
			"sampler":0,
			"source":7
		}
	],
	"images":[
		{
			"mimeType":"image/png",
			"name":"WINGS_emissive",
			"uri":"WINGS_emissive.png"
		},
		{
			"mimeType":"image/png",
			"name":"WINGS_normal",
			"uri":"WINGS_normal.png"
		},
		{
			"mimeType":"image/png",
			"name":"WINGS_metallicRoughness",
			"uri":"WINGS_metallicRoughness.png"
		},
		{
			"mimeType":"image/png",
			"name":"WINGS_baseColor",
			"uri":"WINGS_baseColor.png"
		},
		{
			"mimeType":"image/png",
			"name":"BASE_emissive",
			"uri":"BASE_emissive.png"
		},
		{
			"mimeType":"image/png",
			"name":"BASE_normal",
			"uri":"BASE_normal.png"
		},
		{
			"mimeType":"image/png",
			"name":"BASE_metallicRoughness",
			"uri":"BASE_metallicRoughness.png"
		},
		{
			"mimeType":"image/png",
			"name":"BASE_baseColor",
			"uri":"BASE_baseColor.png"
		}
	],
	"accessors":[
		{
			"bufferView":0,
			"componentType":5126,
			"count":44373,
			"max":[
				61.36857604980469,
				31.16111946105957,
				7.229352951049805
			],
			"min":[
				-61.36872863769531,
				-64.32682800292969,
				-10.740236282348633
			],
			"type":"VEC3"
		},
		{
			"bufferView":1,
			"componentType":5126,
			"count":44373,
			"type":"VEC3"
		},
		{
			"bufferView":2,
			"componentType":5126,
			"count":44373,
			"type":"VEC2"
		},
		{
			"bufferView":3,
			"componentType":5126,
			"count":44373,
			"type":"VEC2"
		},
		{
			"bufferView":4,
			"componentType":5123,
			"count":135708,
			"type":"SCALAR"
		},
		{
			"bufferView":5,
			"componentType":5126,
			"count":98,
			"max":[
				0.2643478214740753,
				-7.25556755065918,
				0.2643480598926544
			],
			"min":[
				-0.2643478214740753,
				-11.582862854003906,
				-0.2643476128578186
			],
			"type":"VEC3"
		},
		{
			"bufferView":6,
			"componentType":5126,
			"count":98,
			"type":"VEC3"
		},
		{
			"bufferView":7,
			"componentType":5126,
			"count":98,
			"type":"VEC2"
		},
		{
			"bufferView":8,
			"componentType":5123,
			"count":282,
			"type":"SCALAR"
		},
		{
			"bufferView":9,
			"componentType":5126,
			"count":66,
			"max":[
				0.5295601487159729,
				-2.398083209991455,
				0.5295602679252625
			],
			"min":[
				-0.5295600891113281,
				-7.25556755065918,
				-0.5295600295066833
			],
			"type":"VEC3"
		},
		{
			"bufferView":10,
			"componentType":5126,
			"count":66,
			"type":"VEC3"
		},
		{
			"bufferView":11,
			"componentType":5126,
			"count":66,
			"type":"VEC2"
		},
		{
			"bufferView":12,
			"componentType":5123,
			"count":192,
			"type":"SCALAR"
		},
		{
			"bufferView":13,
			"componentType":5126,
			"count":98,
			"max":[
				1,
				1,
				1
			],
			"min":[
				-1,
				-2.398083209991455,
				-1
			],
			"type":"VEC3"
		},
		{
			"bufferView":14,
			"componentType":5126,
			"count":98,
			"type":"VEC3"
		},
		{
			"bufferView":15,
			"componentType":5126,
			"count":98,
			"type":"VEC2"
		},
		{
			"bufferView":16,
			"componentType":5123,
			"count":282,
			"type":"SCALAR"
		},
		{
			"bufferView":17,
			"componentType":5126,
			"count":98,
			"max":[
				0.2643478214740753,
				-7.25556755065918,
				0.2643480598926544
			],
			"min":[
				-0.2643478214740753,
				-11.582862854003906,
				-0.2643476128578186
			],
			"type":"VEC3"
		},
		{
			"bufferView":18,
			"componentType":5126,
			"count":98,
			"type":"VEC3"
		},
		{
			"bufferView":19,
			"componentType":5126,
			"count":98,
			"type":"VEC2"
		},
		{
			"bufferView":20,
			"componentType":5126,
			"count":66,
			"max":[
				0.5295601487159729,
				-2.398083209991455,
				0.5295602679252625
			],
			"min":[
				-0.5295600891113281,
				-7.25556755065918,
				-0.5295600295066833
			],
			"type":"VEC3"
		},
		{
			"bufferView":21,
			"componentType":5126,
			"count":66,
			"type":"VEC3"
		},
		{
			"bufferView":22,
			"componentType":5126,
			"count":66,
			"type":"VEC2"
		},
		{
			"bufferView":23,
			"componentType":5126,
			"count":98,
			"max":[
				1,
				1,
				1
			],
			"min":[
				-1,
				-2.398083209991455,
				-1
			],
			"type":"VEC3"
		},
		{
			"bufferView":24,
			"componentType":5126,
			"count":98,
			"type":"VEC3"
		},
		{
			"bufferView":25,
			"componentType":5126,
			"count":98,
			"type":"VEC2"
		},
		{
			"bufferView":26,
			"componentType":5126,
			"count":98,
			"max":[
				0.2643478214740753,
				-7.25556755065918,
				0.2643480598926544
			],
			"min":[
				-0.2643478214740753,
				-11.582862854003906,
				-0.2643476128578186
			],
			"type":"VEC3"
		},
		{
			"bufferView":27,
			"componentType":5126,
			"count":98,
			"type":"VEC3"
		},
		{
			"bufferView":28,
			"componentType":5126,
			"count":98,
			"type":"VEC2"
		},
		{
			"bufferView":29,
			"componentType":5126,
			"count":66,
			"max":[
				0.5295601487159729,
				-2.398083209991455,
				0.5295602679252625
			],
			"min":[
				-0.5295600891113281,
				-7.25556755065918,
				-0.5295600295066833
			],
			"type":"VEC3"
		},
		{
			"bufferView":30,
			"componentType":5126,
			"count":66,
			"type":"VEC3"
		},
		{
			"bufferView":31,
			"componentType":5126,
			"count":66,
			"type":"VEC2"
		},
		{
			"bufferView":32,
			"componentType":5126,
			"count":98,
			"max":[
				1,
				1,
				1
			],
			"min":[
				-1,
				-2.398083209991455,
				-1
			],
			"type":"VEC3"
		},
		{
			"bufferView":33,
			"componentType":5126,
			"count":98,
			"type":"VEC3"
		},
		{
			"bufferView":34,
			"componentType":5126,
			"count":98,
			"type":"VEC2"
		},
		{
			"bufferView":35,
			"componentType":5126,
			"count":26558,
			"max":[
				20.654071807861328,
				38.91846466064453,
				11.094454765319824
			],
			"min":[
				-20.497325897216797,
				-63.39958953857422,
				-16.79916763305664
			],
			"type":"VEC3"
		},
		{
			"bufferView":36,
			"componentType":5126,
			"count":26558,
			"type":"VEC3"
		},
		{
			"bufferView":37,
			"componentType":5126,
			"count":26558,
			"type":"VEC2"
		},
		{
			"bufferView":38,
			"componentType":5126,
			"count":26558,
			"type":"VEC2"
		},
		{
			"bufferView":39,
			"componentType":5123,
			"count":82323,
			"type":"SCALAR"
		}
	],
	"bufferViews":[
		{
			"buffer":0,
			"byteLength":532476,
			"byteOffset":0,
			"target":34962
		},
		{
			"buffer":0,
			"byteLength":532476,
			"byteOffset":532476,
			"target":34962
		},
		{
			"buffer":0,
			"byteLength":354984,
			"byteOffset":1064952,
			"target":34962
		},
		{
			"buffer":0,
			"byteLength":354984,
			"byteOffset":1419936,
			"target":34962
		},
		{
			"buffer":0,
			"byteLength":271416,
			"byteOffset":1774920,
			"target":34963
		},
		{
			"buffer":0,
			"byteLength":1176,
			"byteOffset":2046336,
			"target":34962
		},
		{
			"buffer":0,
			"byteLength":1176,
			"byteOffset":2047512,
			"target":34962
		},
		{
			"buffer":0,
			"byteLength":784,
			"byteOffset":2048688,
			"target":34962
		},
		{
			"buffer":0,
			"byteLength":564,
			"byteOffset":2049472,
			"target":34963
		},
		{
			"buffer":0,
			"byteLength":792,
			"byteOffset":2050036,
			"target":34962
		},
		{
			"buffer":0,
			"byteLength":792,
			"byteOffset":2050828,
			"target":34962
		},
		{
			"buffer":0,
			"byteLength":528,
			"byteOffset":2051620,
			"target":34962
		},
		{
			"buffer":0,
			"byteLength":384,
			"byteOffset":2052148,
			"target":34963
		},
		{
			"buffer":0,
			"byteLength":1176,
			"byteOffset":2052532,
			"target":34962
		},
		{
			"buffer":0,
			"byteLength":1176,
			"byteOffset":2053708,
			"target":34962
		},
		{
			"buffer":0,
			"byteLength":784,
			"byteOffset":2054884,
			"target":34962
		},
		{
			"buffer":0,
			"byteLength":564,
			"byteOffset":2055668,
			"target":34963
		},
		{
			"buffer":0,
			"byteLength":1176,
			"byteOffset":2056232,
			"target":34962
		},
		{
			"buffer":0,
			"byteLength":1176,
			"byteOffset":2057408,
			"target":34962
		},
		{
			"buffer":0,
			"byteLength":784,
			"byteOffset":2058584,
			"target":34962
		},
		{
			"buffer":0,
			"byteLength":792,
			"byteOffset":2059368,
			"target":34962
		},
		{
			"buffer":0,
			"byteLength":792,
			"byteOffset":2060160,
			"target":34962
		},
		{
			"buffer":0,
			"byteLength":528,
			"byteOffset":2060952,
			"target":34962
		},
		{
			"buffer":0,
			"byteLength":1176,
			"byteOffset":2061480,
			"target":34962
		},
		{
			"buffer":0,
			"byteLength":1176,
			"byteOffset":2062656,
			"target":34962
		},
		{
			"buffer":0,
			"byteLength":784,
			"byteOffset":2063832,
			"target":34962
		},
		{
			"buffer":0,
			"byteLength":1176,
			"byteOffset":2064616,
			"target":34962
		},
		{
			"buffer":0,
			"byteLength":1176,
			"byteOffset":2065792,
			"target":34962
		},
		{
			"buffer":0,
			"byteLength":784,
			"byteOffset":2066968,
			"target":34962
		},
		{
			"buffer":0,
			"byteLength":792,
			"byteOffset":2067752,
			"target":34962
		},
		{
			"buffer":0,
			"byteLength":792,
			"byteOffset":2068544,
			"target":34962
		},
		{
			"buffer":0,
			"byteLength":528,
			"byteOffset":2069336,
			"target":34962
		},
		{
			"buffer":0,
			"byteLength":1176,
			"byteOffset":2069864,
			"target":34962
		},
		{
			"buffer":0,
			"byteLength":1176,
			"byteOffset":2071040,
			"target":34962
		},
		{
			"buffer":0,
			"byteLength":784,
			"byteOffset":2072216,
			"target":34962
		},
		{
			"buffer":0,
			"byteLength":318696,
			"byteOffset":2073000,
			"target":34962
		},
		{
			"buffer":0,
			"byteLength":318696,
			"byteOffset":2391696,
			"target":34962
		},
		{
			"buffer":0,
			"byteLength":212464,
			"byteOffset":2710392,
			"target":34962
		},
		{
			"buffer":0,
			"byteLength":212464,
			"byteOffset":2922856,
			"target":34962
		},
		{
			"buffer":0,
			"byteLength":164646,
			"byteOffset":3135320,
			"target":34963
		}
	],
	"samplers":[
		{
			"magFilter":9729,
			"minFilter":9987
		}
	],
	"buffers":[
		{
			"byteLength":3299968,
			"uri":"spaceShip.bin"
		}
	]
}
