{
	"asset":{
		"generator":"Khronos glTF Blender I/O v3.6.27",
		"version":"2.0"
	},
	"scene":0,
	"scenes":[
		{
			"name":"Scene",
			"nodes":[
				2
			]
		}
	],
	"nodes":[
		{
			"mesh":0,
			"name":"Bottom_Material"
		},
		{
			"mesh":1,
			"name":"Centre_Material"
		},
		{
			"children":[
				0,
				1
			],
			"mesh":2,
			"name":"Top_Material",
			"rotation":[
				0.7071068286895752,
				0,
				0,
				0.7071068286895752
			]
		}
	],
	"materials":[
		{
			"doubleSided":true,
			"name":"Material.024",
			"pbrMetallicRoughness":{
				"metallicFactor":0,
				"roughnessFactor":0.5
			}
		}
	],
	"meshes":[
		{
			"name":"Bottom_Material_0.001",
			"primitives":[
				{
					"attributes":{
						"POSITION":0,
						"NORMAL":1,
						"TEXCOORD_0":2
					},
					"indices":3,
					"material":0
				}
			]
		},
		{
			"name":"Centre_Material_0.001",
			"primitives":[
				{
					"attributes":{
						"POSITION":4,
						"NORMAL":5,
						"TEXCOORD_0":6
					},
					"indices":7,
					"material":0
				}
			]
		},
		{
			"name":"Top_Material_0.001",
			"primitives":[
				{
					"attributes":{
						"POSITION":8,
						"NORMAL":9,
						"TEXCOORD_0":10
					},
					"indices":11,
					"material":0
				}
			]
		}
	],
	"accessors":[
		{
			"bufferView":0,
			"componentType":5126,
			"count":102,
			"max":[
				14.507683753967285,
				1.9085309505462646,
				-0.6254079937934875
			],
			"min":[
				-14.530404090881348,
				-1.9085290431976318,
				-15.155814170837402
			],
			"type":"VEC3"
		},
		{
			"bufferView":1,
			"componentType":5126,
			"count":102,
			"type":"VEC3"
		},
		{
			"bufferView":2,
			"componentType":5126,
			"count":102,
			"type":"VEC2"
		},
		{
			"bufferView":3,
			"componentType":5123,
			"count":150,
			"type":"SCALAR"
		},
		{
			"bufferView":4,
			"componentType":5126,
			"count":196,
			"max":[
				5.807078838348389,
				0.9961389899253845,
				5.900031089782715
			],
			"min":[
				-5.939897060394287,
				-0.9961389899253845,
				-5.900031089782715
			],
			"type":"VEC3"
		},
		{
			"bufferView":5,
			"componentType":5126,
			"count":196,
			"type":"VEC3"
		},
		{
			"bufferView":6,
			"componentType":5126,
			"count":196,
			"type":"VEC2"
		},
		{
			"bufferView":7,
			"componentType":5123,
			"count":264,
			"type":"SCALAR"
		},
		{
			"bufferView":8,
			"componentType":5126,
			"count":108,
			"max":[
				14.566993713378906,
				1.858528971672058,
				15.1558198928833
			],
			"min":[
				-14.567000389099121,
				-1.8585309982299805,
				0.5888130068778992
			],
			"type":"VEC3"
		},
		{
			"bufferView":9,
			"componentType":5126,
			"count":108,
			"type":"VEC3"
		},
		{
			"bufferView":10,
			"componentType":5126,
			"count":108,
			"type":"VEC2"
		},
		{
			"bufferView":11,
			"componentType":5123,
			"count":150,
			"type":"SCALAR"
		}
	],
	"bufferViews":[
		{
			"buffer":0,
			"byteLength":1224,
			"byteOffset":0,
			"target":34962
		},
		{
			"buffer":0,
			"byteLength":1224,
			"byteOffset":1224,
			"target":34962
		},
		{
			"buffer":0,
			"byteLength":816,
			"byteOffset":2448,
			"target":34962
		},
		{
			"buffer":0,
			"byteLength":300,
			"byteOffset":3264,
			"target":34963
		},
		{
			"buffer":0,
			"byteLength":2352,
			"byteOffset":3564,
			"target":34962
		},
		{
			"buffer":0,
			"byteLength":2352,
			"byteOffset":5916,
			"target":34962
		},
		{
			"buffer":0,
			"byteLength":1568,
			"byteOffset":8268,
			"target":34962
		},
		{
			"buffer":0,
			"byteLength":528,
			"byteOffset":9836,
			"target":34963
		},
		{
			"buffer":0,
			"byteLength":1296,
			"byteOffset":10364,
			"target":34962
		},
		{
			"buffer":0,
			"byteLength":1296,
			"byteOffset":11660,
			"target":34962
		},
		{
			"buffer":0,
			"byteLength":864,
			"byteOffset":12956,
			"target":34962
		},
		{
			"buffer":0,
			"byteLength":300,
			"byteOffset":13820,
			"target":34963
		}
	],
	"buffers":[
		{
			"byteLength":14120,
			"uri":"data:application/octet-stream;base64,"
		}
	]
}
