{
	"asset":{
		"generator":"Khronos glTF Blender I/O v3.6.27",
		"version":"2.0"
	},
	"extensionsUsed":[
		"KHR_materials_emissive_strength"
	],
	"scene":0,
	"scenes":[
		{
			"name":"Scene",
			"nodes":[
				1,
				10,
				16
			]
		}
	],
	"nodes":[
		{
			"mesh":0,
			"name":"Cube.003_WINGS_0",
			"translation":[
				-2.4453302103211172e-05,
				0,
				0
			]
		},
		{
			"children":[
				0
			],
			"mesh":1,
			"name":"ship",
			"rotation":[
				-0.5,
				-0.49999988079071045,
				-0.5000002384185791,
				0.5
			],
			"scale":[
				0.6328763365745544,
				0.6328763365745544,
				0.6328762769699097
			],
			"translation":[
				-0.002506256103515625,
				-0.9078152179718018,
				4.3037872314453125
			]
		},
		{
			"mesh":2,
			"name":"baseLeft1",
			"scale":[
				1.816311240196228,
				4.310880661010742,
				1
			],
			"translation":[
				17.033662796020508,
				-0.6929634809494019,
				17.190185546875
			]
		},
		{
			"mesh":3,
			"name":"baseLeft2.001",
			"scale":[
				1.816311240196228,
				4.310880661010742,
				1
			],
			"translation":[
				-3.0956294536590576,
				-0.6929634809494019,
				17.190185546875
			]
		},
		{
			"mesh":4,
			"name":"baseRight1.002",
			"scale":[
				1.816311240196228,
				4.310880661010742,
				1
			],
			"translation":[
				17.033662796020508,
				-0.6929634809494019,
				-17.503158569335938
			]
		},
		{
			"mesh":5,
			"name":"baseRight1.003",
			"scale":[
				1.816311240196228,
				4.310880661010742,
				1
			],
			"translation":[
				-3.0956294536590576,
				-0.6929634809494019,
				-17.579757690429688
			]
		},
		{
			"mesh":6,
			"name":"lightLeft",
			"translation":[
				-0.0002286463713971898,
				-2.9247896671295166,
				4.3927459716796875
			]
		},
		{
			"mesh":7,
			"name":"lightRight",
			"translation":[
				-0.0002286463713971898,
				-2.9247896671295166,
				4.3927459716796875
			]
		},
		{
			"mesh":8,
			"name":"roadLeft",
			"translation":[
				-0.004552141297608614,
				-3.9134838581085205,
				4.3037872314453125
			]
		},
		{
			"mesh":9,
			"name":"roadRight",
			"translation":[
				-0.007683903910219669,
				-3.9134838581085205,
				-4.4078521728515625
			]
		},
		{
			"children":[
				2,
				3,
				4,
				5,
				6,
				7,
				8,
				9
			],
			"mesh":10,
			"name":"sidewalk",
			"scale":[
				0.5505663752555847,
				0.2319711446762085,
				1
			]
		},
		{
			"mesh":11,
			"name":"Object_12",
			"translation":[
				-0.00118255615234375,
				-5.166229248046875,
				0.021312957629561424
			]
		},
		{
			"mesh":12,
			"name":"Object_14",
			"translation":[
				5.340576171875e-05,
				0.5954437851905823,
				-0.4677189588546753
			]
		},
		{
			"mesh":13,
			"name":"Object_15",
			"translation":[
				0.00035858154296875,
				-5.7551116943359375,
				-0.46771886944770813
			]
		},
		{
			"mesh":14,
			"name":"Object_19",
			"translation":[
				-0.0149993896484375,
				-2.540252685546875,
				0.05945456027984619
			]
		},
		{
			"mesh":15,
			"name":"Object_22",
			"translation":[
				-0.0120849609375,
				-2.54241943359375,
				-0.2839730381965637
			]
		},
		{
			"children":[
				11,
				12,
				13,
				14,
				15
			],
			"mesh":16,
			"name":"house",
			"rotation":[
				-0.70710688829422,
				0,
				0,
				0.7071066498756409
			],
			"translation":[
				9.378162384033203,
				-0.16074752807617188,
				17.190185546875
			]
		}
	],
	"materials":[
		{
			"doubleSided":true,
			"emissiveFactor":[
				1,
				1,
				1
			],
			"emissiveTexture":{
				"index":0
			},
			"extensions":{
				"KHR_materials_emissive_strength":{
					"emissiveStrength":7.162331581115723
				}
			},
			"name":"WINGS",
			"normalTexture":{
				"index":1
			},
			"occlusionTexture":{
				"index":2
			},
			"pbrMetallicRoughness":{
				"baseColorTexture":{
					"index":3
				},
				"metallicRoughnessTexture":{
					"index":2
				},
				"roughnessFactor":0.735122799873352
			}
		},
		{
			"doubleSided":true,
			"emissiveFactor":[
				1,
				1,
				1
			],
			"emissiveTexture":{
				"index":4
			},
			"extensions":{
				"KHR_materials_emissive_strength":{
					"emissiveStrength":1.9991562366485596
				}
			},
			"name":"BASE",
			"normalTexture":{
				"index":5
			},
			"occlusionTexture":{
				"index":6
			},
			"pbrMetallicRoughness":{
				"baseColorTexture":{
					"index":7
				},
				"metallicRoughnessTexture":{
					"index":6
				},
				"roughnessFactor":0.8484607934951782
			}
		},
		{
			"doubleSided":true,
			"emissiveFactor":[
				0.014518547803163528,
				0.8000000715255737,
				0.7725471258163452
			],
			"name":"lights",
			"pbrMetallicRoughness":{
				"baseColorFactor":[
					0,
					0,
					0,
					1
				]
			}
		},
		{
			"doubleSided":true,
			"name":"metalic dark gray",
			"pbrMetallicRoughness":{}
		},
		{
			"doubleSided":true,
			"name":"020Ma",
			"normalTexture":{
				"index":8
			},
			"occlusionTexture":{
				"index":9
			},
			"pbrMetallicRoughness":{
				"baseColorTexture":{
					"index":10
				},
				"metallicRoughnessTexture":{
					"index":9
				}
			}
		},
		{
			"doubleSided":true,
			"emissiveFactor":[
				1,
				1,
				1
			],
			"emissiveTexture":{
				"index":11
			},
			"name":"020Mb",
			"normalTexture":{
				"index":12
			},
			"occlusionTexture":{
				"index":13
			},
			"pbrMetallicRoughness":{
				"baseColorTexture":{
					"index":14
				},
				"metallicRoughnessTexture":{
					"index":13
				}
			}
		}
	],
	"meshes":[
		{
			"name":"Cube.003_WINGS_0",
			"primitives":[
				{
					"attributes":{
						"POSITION":0,
						"NORMAL":1,
						"TEXCOORD_0":2,
						"TEXCOORD_1":3
					},
					"indices":4,
					"material":0
				}
			]
		},
		{
			"name":"Cube.010_BASE_0",
			"primitives":[
				{
					"attributes":{
						"POSITION":5,
						"NORMAL":6,
						"TEXCOORD_0":7,
						"TEXCOORD_1":8
					},
					"indices":9,
					"material":1
				}
			]
		},
		{
			"name":"Cube.002",
			"primitives":[
				{
					"attributes":{
						"POSITION":10,
						"NORMAL":11,
						"TEXCOORD_0":12
					},
					"indices":13
				}
			]
		},
		{
			"name":"Cube.004",
			"primitives":[
				{
					"attributes":{
						"POSITION":14,
						"NORMAL":15,
						"TEXCOORD_0":16
					},
					"indices":13
				}
			]
		},
		{
			"name":"Cube.005",
			"primitives":[
				{
					"attributes":{
						"POSITION":17,
						"NORMAL":18,
						"TEXCOORD_0":19
					},
					"indices":13
				}
			]
		},
		{
			"name":"Cube.008",
			"primitives":[
				{
					"attributes":{
						"POSITION":20,
						"NORMAL":21,
						"TEXCOORD_0":22
					},
					"indices":13
				}
			]
		},
		{
			"name":"Cube.044",
			"primitives":[
				{
					"attributes":{
						"POSITION":23,
						"NORMAL":24,
						"TEXCOORD_0":25
					},
					"indices":26,
					"material":2
				}
			]
		},
		{
			"name":"Cube.040",
			"primitives":[
				{
					"attributes":{
						"POSITION":27,
						"NORMAL":28,
						"TEXCOORD_0":29
					},
					"indices":30,
					"material":2
				}
			]
		},
		{
			"name":"Cube.031",
			"primitives":[
				{
					"attributes":{
						"POSITION":31,
						"NORMAL":32
					},
					"indices":33,
					"material":3
				}
			]
		},
		{
			"name":"Cube.035",
			"primitives":[
				{
					"attributes":{
						"POSITION":34,
						"NORMAL":35
					},
					"indices":36,
					"material":3
				}
			]
		},
		{
			"name":"Cube.001",
			"primitives":[
				{
					"attributes":{
						"POSITION":37,
						"NORMAL":38,
						"TEXCOORD_0":39
					},
					"indices":40,
					"material":3
				}
			]
		},
		{
			"name":"Object_9",
			"primitives":[
				{
					"attributes":{
						"POSITION":41,
						"NORMAL":42,
						"TEXCOORD_0":43
					},
					"indices":44,
					"material":4
				}
			]
		},
		{
			"name":"Object_11",
			"primitives":[
				{
					"attributes":{
						"POSITION":45,
						"NORMAL":46,
						"TEXCOORD_0":47
					},
					"indices":48,
					"material":5
				}
			]
		},
		{
			"name":"Object_12",
			"primitives":[
				{
					"attributes":{
						"POSITION":49,
						"NORMAL":50,
						"TEXCOORD_0":51
					},
					"indices":48,
					"material":5
				}
			]
		},
		{
			"name":"Object_16",
			"primitives":[
				{
					"attributes":{
						"POSITION":52,
						"NORMAL":53,
						"TEXCOORD_0":54
					},
					"indices":55,
					"material":5
				}
			]
		},
		{
			"name":"Object_19",
			"primitives":[
				{
					"attributes":{
						"POSITION":56,
						"NORMAL":57,
						"TEXCOORD_0":58
					},
					"indices":59,
					"material":5
				}
			]
		},
		{
			"name":"Object_8",
			"primitives":[
				{
					"attributes":{
						"POSITION":60,
						"NORMAL":61,
						"TEXCOORD_0":62
					},
					"indices":63,
					"material":4
				}
			]
		}
	],
	"textures":[
		{
			"sampler":0,
			"source":0
		},
		{
			"sampler":0,
			"source":1
		},
		{
			"sampler":0,
			"source":2
		},
		{
			"sampler":0,
			"source":3
		},
		{
			"sampler":0,
			"source":4
		},
		{
			"sampler":0,
			"source":5
		},
		{
			"sampler":0,
			"source":6
		},
		{
			"sampler":0,
			"source":7
		},
		{
			"sampler":0,
			"source":8
		},
		{
			"sampler":0,
			"source":9
		},
		{
			"sampler":0,
			"source":10
		},
		{
			"sampler":0,
			"source":11
		},
		{
			"sampler":0,
			"source":12
		},
		{
			"sampler":0,
			"source":13
		},
		{
			"sampler":0,
			"source":14
		}
	],
	"images":[
		{
			"mimeType":"image/png",
			"name":"WINGS_emissive",
			"uri":"WINGS_emissive.png"
		},
		{
			"mimeType":"image/png",
			"name":"WINGS_normal",
			"uri":"WINGS_normal.png"
		},
		{
			"mimeType":"image/png",
			"name":"WINGS_metallicRoughness",
			"uri":"WINGS_metallicRoughness.png"
		},
		{
			"mimeType":"image/png",
			"name":"WINGS_baseColor",
			"uri":"WINGS_baseColor.png"
		},
		{
			"mimeType":"image/png",
			"name":"BASE_emissive",
			"uri":"BASE_emissive.png"
		},
		{
			"mimeType":"image/png",
			"name":"BASE_normal",
			"uri":"BASE_normal.png"
		},
		{
			"mimeType":"image/png",
			"name":"BASE_metallicRoughness",
			"uri":"BASE_metallicRoughness.png"
		},
		{
			"mimeType":"image/png",
			"name":"BASE_baseColor",
			"uri":"BASE_baseColor.png"
		},
		{
			"mimeType":"image/jpeg",
			"name":"020Ma_normal",
			"uri":"020Ma_normal.jpg"
		},
		{
			"mimeType":"image/png",
			"name":"020Ma_metallicRoughness",
			"uri":"020Ma_metallicRoughness.png"
		},
		{
			"mimeType":"image/jpeg",
			"name":"020Ma_baseColor",
			"uri":"020Ma_baseColor.jpg"
		},
		{
			"mimeType":"image/jpeg",
			"name":"020Mb_emissive",
			"uri":"020Mb_emissive.jpg"
		},
		{
			"mimeType":"image/jpeg",
			"name":"020Mb_normal",
			"uri":"020Mb_normal.jpg"
		},
		{
			"mimeType":"image/png",
			"name":"020Mb_metallicRoughness",
			"uri":"020Mb_metallicRoughness.png"
		},
		{
			"mimeType":"image/jpeg",
			"name":"020Mb_baseColor",
			"uri":"020Mb_baseColor.jpg"
		}
	],
	"accessors":[
		{
			"bufferView":0,
			"componentType":5126,
			"count":42072,
			"max":[
				6.136865139007568,
				4.341372013092041,
				2.1901628971099854
			],
			"min":[
				-6.136865139007568,
				-5.207426071166992,
				0.39320361614227295
			],
			"type":"VEC3"
		},
		{
			"bufferView":1,
			"componentType":5126,
			"count":42072,
			"type":"VEC3"
		},
		{
			"bufferView":2,
			"componentType":5126,
			"count":42072,
			"type":"VEC2"
		},
		{
			"bufferView":3,
			"componentType":5126,
			"count":42072,
			"type":"VEC2"
		},
		{
			"bufferView":4,
			"componentType":5123,
			"count":135708,
			"type":"SCALAR"
		},
		{
			"bufferView":5,
			"componentType":5126,
			"count":26618,
			"max":[
				2.063183546066284,
				5.570804119110107,
				2.786438465118408
			],
			"min":[
				-2.05195689201355,
				-4.6609978675842285,
				-0.0029248103965073824
			],
			"type":"VEC3"
		},
		{
			"bufferView":6,
			"componentType":5126,
			"count":26618,
			"type":"VEC3"
		},
		{
			"bufferView":7,
			"componentType":5126,
			"count":26618,
			"type":"VEC2"
		},
		{
			"bufferView":8,
			"componentType":5126,
			"count":26618,
			"type":"VEC2"
		},
		{
			"bufferView":9,
			"componentType":5123,
			"count":82323,
			"type":"SCALAR"
		},
		{
			"bufferView":10,
			"componentType":5126,
			"count":24,
			"max":[
				1,
				1,
				1
			],
			"min":[
				-1,
				-1,
				-1
			],
			"type":"VEC3"
		},
		{
			"bufferView":11,
			"componentType":5126,
			"count":24,
			"type":"VEC3"
		},
		{
			"bufferView":12,
			"componentType":5126,
			"count":24,
			"type":"VEC2"
		},
		{
			"bufferView":13,
			"componentType":5123,
			"count":36,
			"type":"SCALAR"
		},
		{
			"bufferView":14,
			"componentType":5126,
			"count":24,
			"max":[
				1,
				1,
				1
			],
			"min":[
				-1,
				-1,
				-1
			],
			"type":"VEC3"
		},
		{
			"bufferView":15,
			"componentType":5126,
			"count":24,
			"type":"VEC3"
		},
		{
			"bufferView":16,
			"componentType":5126,
			"count":24,
			"type":"VEC2"
		},
		{
			"bufferView":17,
			"componentType":5126,
			"count":24,
			"max":[
				1,
				1,
				1
			],
			"min":[
				-1,
				-1,
				-1
			],
			"type":"VEC3"
		},
		{
			"bufferView":18,
			"componentType":5126,
			"count":24,
			"type":"VEC3"
		},
		{
			"bufferView":19,
			"componentType":5126,
			"count":24,
			"type":"VEC2"
		},
		{
			"bufferView":20,
			"componentType":5126,
			"count":24,
			"max":[
				1,
				1,
				1
			],
			"min":[
				-1,
				-1,
				-1
			],
			"type":"VEC3"
		},
		{
			"bufferView":21,
			"componentType":5126,
			"count":24,
			"type":"VEC3"
		},
		{
			"bufferView":22,
			"componentType":5126,
			"count":24,
			"type":"VEC2"
		},
		{
			"bufferView":23,
			"componentType":5126,
			"count":4,
			"max":[
				27.05864143371582,
				2.4546494483947754,
				4.27362060546875
			],
			"min":[
				-12.916322708129883,
				-0.9886941909790039,
				4.2292938232421875
			],
			"type":"VEC3"
		},
		{
			"bufferView":24,
			"componentType":5126,
			"count":4,
			"type":"VEC3"
		},
		{
			"bufferView":25,
			"componentType":5126,
			"count":4,
			"type":"VEC2"
		},
		{
			"bufferView":26,
			"componentType":5123,
			"count":6,
			"type":"SCALAR"
		},
		{
			"bufferView":27,
			"componentType":5126,
			"count":4,
			"max":[
				27.052080154418945,
				2.4175376892089844,
				-13.134269714355469
			],
			"min":[
				-12.916191101074219,
				-0.9886941909790039,
				-13.178596496582031
			],
			"type":"VEC3"
		},
		{
			"bufferView":28,
			"componentType":5126,
			"count":4,
			"type":"VEC3"
		},
		{
			"bufferView":29,
			"componentType":5126,
			"count":4,
			"type":"VEC2"
		},
		{
			"bufferView":30,
			"componentType":5123,
			"count":6,
			"type":"SCALAR"
		},
		{
			"bufferView":31,
			"componentType":5126,
			"count":4,
			"max":[
				27.057968139648438,
				0,
				4.377986907958984
			],
			"min":[
				-12.914681434631348,
				0,
				-4.377986907958984
			],
			"type":"VEC3"
		},
		{
			"bufferView":32,
			"componentType":5126,
			"count":4,
			"type":"VEC3"
		},
		{
			"bufferView":33,
			"componentType":5123,
			"count":6,
			"type":"SCALAR"
		},
		{
			"bufferView":34,
			"componentType":5126,
			"count":4,
			"max":[
				27.05687713623047,
				0,
				4.377986907958984
			],
			"min":[
				-12.913586616516113,
				0,
				-4.377983093261719
			],
			"type":"VEC3"
		},
		{
			"bufferView":35,
			"componentType":5126,
			"count":4,
			"type":"VEC3"
		},
		{
			"bufferView":36,
			"componentType":5123,
			"count":6,
			"type":"SCALAR"
		},
		{
			"bufferView":37,
			"componentType":5126,
			"count":48,
			"max":[
				27.06734848022461,
				0.32569998502731323,
				30.432588577270508
			],
			"min":[
				-12.91692066192627,
				-0.5072515606880188,
				-28.91569709777832
			],
			"type":"VEC3"
		},
		{
			"bufferView":38,
			"componentType":5126,
			"count":48,
			"type":"VEC3"
		},
		{
			"bufferView":39,
			"componentType":5126,
			"count":48,
			"type":"VEC2"
		},
		{
			"bufferView":40,
			"componentType":5123,
			"count":72,
			"type":"SCALAR"
		},
		{
			"bufferView":41,
			"componentType":5126,
			"count":7672,
			"max":[
				4.76751708984375,
				2.5763580799102783,
				26.869630813598633
			],
			"min":[
				-4.76373291015625,
				-2.1656315326690674,
				-0.7171010971069336
			],
			"type":"VEC3"
		},
		{
			"bufferView":42,
			"componentType":5126,
			"count":7672,
			"type":"VEC3"
		},
		{
			"bufferView":43,
			"componentType":5126,
			"count":7672,
			"type":"VEC2"
		},
		{
			"bufferView":44,
			"componentType":5123,
			"count":12558,
			"type":"SCALAR"
		},
		{
			"bufferView":45,
			"componentType":5126,
			"count":920,
			"max":[
				4.583930969238281,
				1.402548909187317,
				26.832252502441406
			],
			"min":[
				-4.584144592285156,
				-2.784738540649414,
				-0.16343975067138672
			],
			"type":"VEC3"
		},
		{
			"bufferView":46,
			"componentType":5126,
			"count":920,
			"type":"VEC3"
		},
		{
			"bufferView":47,
			"componentType":5126,
			"count":920,
			"type":"VEC2"
		},
		{
			"bufferView":48,
			"componentType":5123,
			"count":2208,
			"type":"SCALAR"
		},
		{
			"bufferView":49,
			"componentType":5126,
			"count":920,
			"max":[
				4.584388732910156,
				2.784785270690918,
				26.832252502441406
			],
			"min":[
				-4.583686828613281,
				-1.4025005102157593,
				-0.16343975067138672
			],
			"type":"VEC3"
		},
		{
			"bufferView":50,
			"componentType":5126,
			"count":920,
			"type":"VEC3"
		},
		{
			"bufferView":51,
			"componentType":5126,
			"count":920,
			"type":"VEC2"
		},
		{
			"bufferView":52,
			"componentType":5126,
			"count":47070,
			"max":[
				5.061614990234375,
				5.061366081237793,
				26.871654510498047
			],
			"min":[
				-5.051116943359375,
				-5.0581865310668945,
				-0.6952362060546875
			],
			"type":"VEC3"
		},
		{
			"bufferView":53,
			"componentType":5126,
			"count":47070,
			"type":"VEC3"
		},
		{
			"bufferView":54,
			"componentType":5126,
			"count":47070,
			"type":"VEC2"
		},
		{
			"bufferView":55,
			"componentType":5123,
			"count":82800,
			"type":"SCALAR"
		},
		{
			"bufferView":56,
			"componentType":5126,
			"count":2760,
			"max":[
				4.499717712402344,
				4.489818096160889,
				27.186569213867188
			],
			"min":[
				-4.5000152587890625,
				-4.490015029907227,
				-0.7601423263549805
			],
			"type":"VEC3"
		},
		{
			"bufferView":57,
			"componentType":5126,
			"count":2760,
			"type":"VEC3"
		},
		{
			"bufferView":58,
			"componentType":5126,
			"count":2760,
			"type":"VEC2"
		},
		{
			"bufferView":59,
			"componentType":5123,
			"count":4416,
			"type":"SCALAR"
		},
		{
			"bufferView":60,
			"componentType":5126,
			"count":7643,
			"max":[
				4.7655744552612305,
				2.172210454940796,
				26.890945434570312
			],
			"min":[
				-4.7656755447387695,
				-2.569781541824341,
				-0.6957874298095703
			],
			"type":"VEC3"
		},
		{
			"bufferView":61,
			"componentType":5126,
			"count":7643,
			"type":"VEC3"
		},
		{
			"bufferView":62,
			"componentType":5126,
			"count":7643,
			"type":"VEC2"
		},
		{
			"bufferView":63,
			"componentType":5123,
			"count":12558,
			"type":"SCALAR"
		}
	],
	"bufferViews":[
		{
			"buffer":0,
			"byteLength":504864,
			"byteOffset":0,
			"target":34962
		},
		{
			"buffer":0,
			"byteLength":504864,
			"byteOffset":504864,
			"target":34962
		},
		{
			"buffer":0,
			"byteLength":336576,
			"byteOffset":1009728,
			"target":34962
		},
		{
			"buffer":0,
			"byteLength":336576,
			"byteOffset":1346304,
			"target":34962
		},
		{
			"buffer":0,
			"byteLength":271416,
			"byteOffset":1682880,
			"target":34963
		},
		{
			"buffer":0,
			"byteLength":319416,
			"byteOffset":1954296,
			"target":34962
		},
		{
			"buffer":0,
			"byteLength":319416,
			"byteOffset":2273712,
			"target":34962
		},
		{
			"buffer":0,
			"byteLength":212944,
			"byteOffset":2593128,
			"target":34962
		},
		{
			"buffer":0,
			"byteLength":212944,
			"byteOffset":2806072,
			"target":34962
		},
		{
			"buffer":0,
			"byteLength":164646,
			"byteOffset":3019016,
			"target":34963
		},
		{
			"buffer":0,
			"byteLength":288,
			"byteOffset":3183664,
			"target":34962
		},
		{
			"buffer":0,
			"byteLength":288,
			"byteOffset":3183952,
			"target":34962
		},
		{
			"buffer":0,
			"byteLength":192,
			"byteOffset":3184240,
			"target":34962
		},
		{
			"buffer":0,
			"byteLength":72,
			"byteOffset":3184432,
			"target":34963
		},
		{
			"buffer":0,
			"byteLength":288,
			"byteOffset":3184504,
			"target":34962
		},
		{
			"buffer":0,
			"byteLength":288,
			"byteOffset":3184792,
			"target":34962
		},
		{
			"buffer":0,
			"byteLength":192,
			"byteOffset":3185080,
			"target":34962
		},
		{
			"buffer":0,
			"byteLength":288,
			"byteOffset":3185272,
			"target":34962
		},
		{
			"buffer":0,
			"byteLength":288,
			"byteOffset":3185560,
			"target":34962
		},
		{
			"buffer":0,
			"byteLength":192,
			"byteOffset":3185848,
			"target":34962
		},
		{
			"buffer":0,
			"byteLength":288,
			"byteOffset":3186040,
			"target":34962
		},
		{
			"buffer":0,
			"byteLength":288,
			"byteOffset":3186328,
			"target":34962
		},
		{
			"buffer":0,
			"byteLength":192,
			"byteOffset":3186616,
			"target":34962
		},
		{
			"buffer":0,
			"byteLength":48,
			"byteOffset":3186808,
			"target":34962
		},
		{
			"buffer":0,
			"byteLength":48,
			"byteOffset":3186856,
			"target":34962
		},
		{
			"buffer":0,
			"byteLength":32,
			"byteOffset":3186904,
			"target":34962
		},
		{
			"buffer":0,
			"byteLength":12,
			"byteOffset":3186936,
			"target":34963
		},
		{
			"buffer":0,
			"byteLength":48,
			"byteOffset":3186948,
			"target":34962
		},
		{
			"buffer":0,
			"byteLength":48,
			"byteOffset":3186996,
			"target":34962
		},
		{
			"buffer":0,
			"byteLength":32,
			"byteOffset":3187044,
			"target":34962
		},
		{
			"buffer":0,
			"byteLength":12,
			"byteOffset":3187076,
			"target":34963
		},
		{
			"buffer":0,
			"byteLength":48,
			"byteOffset":3187088,
			"target":34962
		},
		{
			"buffer":0,
			"byteLength":48,
			"byteOffset":3187136,
			"target":34962
		},
		{
			"buffer":0,
			"byteLength":12,
			"byteOffset":3187184,
			"target":34963
		},
		{
			"buffer":0,
			"byteLength":48,
			"byteOffset":3187196,
			"target":34962
		},
		{
			"buffer":0,
			"byteLength":48,
			"byteOffset":3187244,
			"target":34962
		},
		{
			"buffer":0,
			"byteLength":12,
			"byteOffset":3187292,
			"target":34963
		},
		{
			"buffer":0,
			"byteLength":576,
			"byteOffset":3187304,
			"target":34962
		},
		{
			"buffer":0,
			"byteLength":576,
			"byteOffset":3187880,
			"target":34962
		},
		{
			"buffer":0,
			"byteLength":384,
			"byteOffset":3188456,
			"target":34962
		},
		{
			"buffer":0,
			"byteLength":144,
			"byteOffset":3188840,
			"target":34963
		},
		{
			"buffer":0,
			"byteLength":92064,
			"byteOffset":3188984,
			"target":34962
		},
		{
			"buffer":0,
			"byteLength":92064,
			"byteOffset":3281048,
			"target":34962
		},
		{
			"buffer":0,
			"byteLength":61376,
			"byteOffset":3373112,
			"target":34962
		},
		{
			"buffer":0,
			"byteLength":25116,
			"byteOffset":3434488,
			"target":34963
		},
		{
			"buffer":0,
			"byteLength":11040,
			"byteOffset":3459604,
			"target":34962
		},
		{
			"buffer":0,
			"byteLength":11040,
			"byteOffset":3470644,
			"target":34962
		},
		{
			"buffer":0,
			"byteLength":7360,
			"byteOffset":3481684,
			"target":34962
		},
		{
			"buffer":0,
			"byteLength":4416,
			"byteOffset":3489044,
			"target":34963
		},
		{
			"buffer":0,
			"byteLength":11040,
			"byteOffset":3493460,
			"target":34962
		},
		{
			"buffer":0,
			"byteLength":11040,
			"byteOffset":3504500,
			"target":34962
		},
		{
			"buffer":0,
			"byteLength":7360,
			"byteOffset":3515540,
			"target":34962
		},
		{
			"buffer":0,
			"byteLength":564840,
			"byteOffset":3522900,
			"target":34962
		},
		{
			"buffer":0,
			"byteLength":564840,
			"byteOffset":4087740,
			"target":34962
		},
		{
			"buffer":0,
			"byteLength":376560,
			"byteOffset":4652580,
			"target":34962
		},
		{
			"buffer":0,
			"byteLength":165600,
			"byteOffset":5029140,
			"target":34963
		},
		{
			"buffer":0,
			"byteLength":33120,
			"byteOffset":5194740,
			"target":34962
		},
		{
			"buffer":0,
			"byteLength":33120,
			"byteOffset":5227860,
			"target":34962
		},
		{
			"buffer":0,
			"byteLength":22080,
			"byteOffset":5260980,
			"target":34962
		},
		{
			"buffer":0,
			"byteLength":8832,
			"byteOffset":5283060,
			"target":34963
		},
		{
			"buffer":0,
			"byteLength":91716,
			"byteOffset":5291892,
			"target":34962
		},
		{
			"buffer":0,
			"byteLength":91716,
			"byteOffset":5383608,
			"target":34962
		},
		{
			"buffer":0,
			"byteLength":61144,
			"byteOffset":5475324,
			"target":34962
		},
		{
			"buffer":0,
			"byteLength":25116,
			"byteOffset":5536468,
			"target":34963
		}
	],
	"samplers":[
		{
			"magFilter":9729,
			"minFilter":9987
		}
	],
	"buffers":[
		{
			"byteLength":5561584,
			"uri":"tempTrackScene.bin"
		}
	]
}
